<?xml version="1.0" standalone="no"?>
<!DOCTYPE svg PUBLIC "-//W3C//DTD SVG 20010904//EN"
 "http://www.w3.org/TR/2001/REC-SVG-20010904/DTD/svg10.dtd">
<svg version="1.0" xmlns="http://www.w3.org/2000/svg"
 width="800.000000pt" height="800.000000pt" viewBox="0 0 800.000000 800.000000"
 preserveAspectRatio="xMidYMid meet">
<metadata>
Created by potrace 1.11, written by Peter Selinger 2001-2013
</metadata>
<g transform="translate(0.000000,800.000000) scale(0.100000,-0.100000)"
fill="#000000" stroke="none">
<path d="M2007 6508 c-71 -15 -131 -50 -192 -112 -131 -131 -178 -266 -179
-516 -1 -197 14 -289 125 -743 l70 -289 -22 -41 c-94 -182 -336 -465 -513
-602 -74 -57 -169 -104 -221 -109 -156 -14 -286 146 -330 409 -4 22 -8 42 -10
45 -8 13 -19 194 -19 310 0 118 9 285 19 340 2 14 11 70 20 125 22 133 67 305
106 407 38 100 44 108 78 108 15 0 50 6 79 14 52 13 52 13 39 -8 -92 -143
-120 -257 -86 -350 19 -50 42 -73 94 -92 111 -40 281 79 370 259 62 126 79
199 79 327 -1 110 -15 160 -64 230 -86 120 -351 86 -538 -69 -65 -54 -168
-185 -208 -263 l-25 -50 -137 5 c-119 5 -162 10 -267 31 -50 10 -133 48 -169
78 -44 36 -66 81 -66 133 0 37 -14 46 -28 18 -11 -23 -5 -79 13 -114 31 -58
149 -125 257 -145 24 -4 45 -8 48 -9 43 -12 166 -23 252 -24 l77 -1 -19 -44
c-77 -181 -121 -433 -122 -695 0 -109 17 -325 27 -341 2 -3 6 -23 9 -45 26
-161 102 -354 181 -461 85 -114 170 -165 285 -172 87 -5 142 15 252 89 169
115 389 360 518 577 24 39 45 70 47 68 11 -11 25 -149 27 -274 1 -50 6 -96 12
-101 8 -9 44 -15 72 -12 6 1 12 11 12 23 0 57 104 349 173 484 57 112 122 187
171 196 31 5 35 -30 14 -127 -21 -103 -18 -87 -53 -225 -15 -58 -29 -116 -32
-130 -2 -13 -11 -56 -19 -95 -23 -106 -27 -276 -8 -357 35 -151 109 -163 216
-35 44 52 148 209 148 223 0 4 6 15 14 23 11 14 39 65 146 268 l17 33 5 -74
c13 -206 178 -328 335 -247 22 11 61 43 85 70 44 48 59 73 91 152 12 30 21 37
53 42 51 9 110 40 158 85 l38 37 -7 -40 c-13 -71 -14 -88 -15 -175 -3 -268
160 -426 345 -335 49 24 149 111 202 176 33 42 117 169 153 232 34 60 48 71
45 35 -1 -12 4 -47 10 -78 49 -233 264 -301 417 -132 34 37 98 156 98 181 0 6
12 11 28 11 66 0 181 78 236 160 10 16 16 19 17 10 0 -8 2 -22 4 -30 1 -8 5
-44 9 -80 3 -36 10 -90 16 -120 5 -30 11 -67 14 -81 15 -88 62 -236 98 -308
80 -158 159 -186 246 -86 33 36 152 210 152 220 0 3 11 22 24 43 13 21 54 96
91 167 37 72 71 133 74 138 4 4 8 -20 8 -52 3 -134 65 -241 142 -241 64 0 146
98 208 249 l31 75 0 -105 c-2 -280 50 -405 141 -344 45 29 144 187 243 384 81
162 88 173 89 136 0 -22 2 -53 3 -70 7 -83 18 -190 21 -204 1 -9 6 -41 11 -71
24 -164 81 -313 136 -353 33 -25 88 -26 122 -3 64 41 166 204 311 494 42 83
77 152 78 152 1 0 2 -35 3 -78 1 -153 94 -274 210 -274 104 0 262 160 417 425
30 50 41 77 32 77 -13 0 -55 -50 -55 -65 0 -11 -91 -147 -133 -200 -113 -139
-194 -203 -244 -190 -43 10 -56 61 -58 233 l-2 153 51 38 c104 77 166 162 166
227 0 34 -8 47 -36 62 -46 24 -129 -11 -206 -88 -47 -48 -69 -82 -114 -177
-148 -316 -297 -593 -371 -690 -36 -47 -79 -76 -102 -68 -30 9 -59 84 -75 196
-11 80 -14 172 -10 394 2 160 6 313 8 340 2 28 7 88 11 135 10 145 22 263 40
420 2 19 7 60 10 90 13 112 17 124 55 132 78 16 339 58 400 64 225 21 366 -1
423 -64 25 -27 35 -79 25 -122 -5 -19 -12 -45 -15 -57 -9 -36 22 -28 38 10 21
48 16 132 -8 165 -51 69 -129 94 -303 97 -133 3 -225 -6 -447 -45 -148 -26
-144 -27 -138 13 6 38 12 83 21 153 7 58 -9 99 -52 133 -71 56 -111 -2 -149
-214 -9 -49 -18 -100 -20 -112 -5 -22 -20 -28 -100 -38 -22 -3 -56 -8 -75 -12
-37 -6 -45 -7 -185 -19 -173 -15 -335 -7 -397 19 -73 31 -90 88 -48 160 23 39
22 54 -3 44 -22 -8 -50 -78 -51 -125 -1 -37 4 -48 31 -72 18 -16 52 -35 75
-42 68 -20 473 -15 558 7 8 2 45 7 81 10 36 4 72 7 80 8 8 1 16 -1 18 -6 3 -6
-9 -134 -24 -252 -8 -65 -18 -299 -19 -471 l-2 -181 -82 -164 c-142 -284 -240
-434 -272 -414 -18 11 -7 195 20 340 6 28 12 67 16 89 3 21 7 46 9 55 24 112
35 158 39 171 7 21 -26 58 -66 74 -54 22 -92 -3 -100 -67 -5 -31 -18 -48 -18
-23 0 27 -37 73 -67 83 -39 14 -96 7 -141 -16 -69 -35 -110 -89 -199 -266 -94
-186 -213 -396 -276 -490 -44 -64 -120 -145 -138 -145 -19 0 -58 52 -73 98
-43 131 -66 354 -71 677 l-3 200 70 130 c448 839 566 1306 335 1332 -102 12
-222 -62 -315 -194 -132 -186 -229 -548 -257 -953 -4 -65 -5 -432 -1 -475 4
-39 -12 -70 -71 -135 -47 -53 -127 -100 -169 -100 -21 0 -21 3 -12 43 5 23 8
83 6 133 -5 113 -36 185 -100 231 -52 37 -79 46 -134 45 -81 -2 -164 -67 -164
-129 0 -12 -21 -42 -49 -70 -32 -31 -68 -86 -106 -158 -57 -110 -177 -300
-231 -364 -73 -87 -151 -148 -194 -151 -42 -3 -48 -1 -74 26 -50 55 -70 192
-53 369 20 199 85 402 152 468 15 15 30 27 34 28 3 0 16 2 29 5 60 11 118 -63
125 -158 7 -90 -36 -208 -87 -239 -47 -29 -83 -25 -105 12 -32 53 -12 128 42
155 27 15 32 34 11 41 -6 2 -23 -6 -38 -18 -76 -60 -78 -187 -2 -223 94 -44
191 65 203 228 15 195 -105 291 -273 217 -67 -30 -139 -113 -195 -226 -88
-174 -159 -245 -264 -262 l-33 -5 12 58 c36 173 -23 330 -144 381 -47 21 -131
18 -169 -5 -40 -24 -70 -63 -77 -102 -4 -19 -25 -49 -50 -73 -31 -30 -66 -86
-120 -192 -184 -362 -315 -567 -388 -611 -28 -16 -30 -16 -42 1 -18 24 -12
159 10 242 9 34 47 144 85 245 112 299 123 391 57 481 -28 38 -86 67 -135 67
-46 0 -105 -42 -143 -102 -12 -21 -26 -38 -30 -38 -5 0 -8 -4 -8 -10 0 -5 -13
-31 -28 -57 -35 -60 -83 -172 -122 -283 l-29 -85 -1 75 c0 91 -19 260 -34 308
-4 11 16 68 48 138 107 239 213 536 266 744 78 305 72 516 -16 619 -48 55
-131 78 -217 59z m3673 -92 c40 -114 -28 -377 -190 -731 -43 -94 -210 -426
-249 -495 l-32 -55 6 85 c3 47 8 105 10 130 10 92 16 136 20 160 2 14 6 41 9
60 32 223 144 596 222 743 77 146 172 194 204 103z m-3480 14 c27 -31 49 -94
59 -169 26 -199 -63 -555 -256 -1020 -35 -86 -69 -169 -75 -185 -13 -35 -24
-21 -32 44 -4 25 -11 68 -16 95 -9 47 -14 82 -24 188 -26 247 -24 450 5 627 6
36 13 75 14 87 5 40 47 157 74 207 35 65 83 119 123 140 43 22 103 15 128 -14z
m-830 -215 c65 -34 101 -122 102 -250 1 -158 -53 -303 -154 -410 -104 -111
-232 -155 -295 -101 -23 20 -27 31 -27 75 1 28 9 72 19 98 22 60 91 163 150
227 35 36 45 55 43 75 -4 36 -37 39 -85 8 -38 -25 -109 -50 -170 -61 l-32 -5
36 62 c93 160 180 249 278 285 43 15 102 14 135 -3z m6294 -1133 c21 -35 6
-97 -39 -153 -22 -28 -112 -99 -125 -99 -11 0 15 111 41 171 12 27 33 59 47
69 25 20 67 27 76 12z m-4539 -41 c104 -48 157 -172 140 -327 l-7 -64 -32 0
c-85 0 -207 63 -247 126 -21 34 -21 36 -3 49 22 16 32 18 92 17 l42 -1 0 40
c0 22 -7 53 -15 69 -14 26 -21 30 -58 30 -23 0 -57 -4 -75 -9 -21 -6 -32 -6
-32 1 0 19 33 66 54 77 33 16 98 12 141 -8z m1514 -14 c49 -33 90 -92 107
-155 12 -48 12 -191 0 -211 -11 -17 -60 -13 -128 10 -71 24 -132 67 -154 112
-15 28 -15 31 2 44 19 14 26 15 89 17 l40 1 -2 53 c-1 30 -7 60 -14 68 -13 16
-78 19 -127 5 -37 -11 -40 -3 -15 39 23 39 49 50 110 47 36 -3 64 -12 92 -30z
m1470 -77 c22 -11 51 -80 52 -124 1 -42 -46 -187 -84 -259 -30 -58 -72 -92
-95 -78 -20 12 -39 111 -36 185 5 95 10 124 34 190 30 80 80 113 129 86z
m-3082 -263 c45 -31 110 -55 174 -65 l46 -7 -26 -57 c-33 -69 -83 -133 -125
-159 -155 -95 -297 179 -186 360 l21 33 29 -39 c16 -22 46 -52 67 -66z m1481
4 c45 -32 116 -60 172 -67 28 -4 50 -11 50 -16 0 -19 -62 -129 -91 -163 -39
-44 -78 -65 -119 -65 -139 0 -214 245 -118 383 l20 28 28 -39 c16 -22 42 -49
58 -61z"/>
<path d="M3212 4330 c-105 -64 -236 -278 -312 -510 -31 -96 -74 -256 -85 -320
-28 -159 -36 -209 -46 -305 -20 -179 -16 -719 6 -805 2 -8 6 -35 9 -60 22
-172 92 -412 158 -544 105 -211 216 -310 345 -310 79 1 124 32 162 113 23 51
26 67 25 171 0 84 -6 142 -23 215 -62 263 -224 642 -393 913 l-21 33 49 -30
c128 -82 285 -108 392 -65 75 30 126 88 177 197 22 48 45 87 51 87 27 0 112
-52 118 -72 3 -12 -5 -51 -18 -87 -13 -37 -40 -111 -60 -166 -54 -153 -72
-306 -52 -434 19 -113 96 -189 158 -153 45 26 174 238 318 524 36 70 65 126
66 125 1 -1 3 -27 5 -57 3 -71 33 -180 65 -239 67 -120 149 -155 249 -104 51
26 148 108 223 188 69 73 92 85 92 46 0 -17 50 -103 73 -125 102 -98 199 -72
337 89 62 73 223 345 203 345 -17 0 -30 -17 -65 -80 -110 -198 -239 -351 -316
-375 -59 -18 -99 60 -109 217 l-6 87 48 53 c99 110 159 221 159 294 0 81 -57
99 -158 50 -71 -35 -134 -109 -172 -201 -25 -62 -28 -83 -29 -188 l-1 -119
-101 -98 c-102 -100 -189 -160 -231 -160 -73 0 -97 64 -97 259 0 108 3 145 13
149 24 8 109 80 140 119 43 55 62 125 41 161 -27 49 -97 42 -188 -19 -78 -52
-110 -97 -217 -309 -48 -96 -119 -231 -158 -300 -180 -325 -243 -371 -200
-150 2 14 6 36 9 50 4 22 27 128 30 140 16 62 34 121 72 241 31 100 44 155 39
173 -8 34 -66 72 -180 118 -56 22 -90 41 -89 50 1 7 13 54 28 103 58 203 23
353 -76 325 -46 -14 -98 -62 -126 -118 -22 -45 -25 -62 -21 -120 3 -37 13 -82
22 -100 21 -40 79 -98 106 -107 11 -4 20 -9 19 -13 -2 -27 -80 -178 -108 -207
-88 -97 -241 -105 -406 -23 -74 36 -132 80 -169 127 -26 33 -28 41 -23 101 5
57 17 88 99 250 52 102 103 208 115 235 87 202 166 447 179 556 3 29 7 56 7
59 1 3 -2 26 -7 52 -12 76 -73 101 -144 58z m113 -50 c30 -93 -52 -394 -188
-690 -68 -149 -105 -226 -131 -270 l-26 -45 5 45 c8 69 28 186 46 276 5 28 12
64 15 80 3 16 12 58 20 94 9 36 17 72 19 80 12 56 47 167 74 235 60 157 146
257 166 195z m416 -793 c4 -16 6 -53 4 -83 -5 -58 -40 -206 -56 -236 -10 -18
-11 -18 -40 3 -62 44 -73 131 -29 234 24 57 77 117 99 113 8 -2 18 -16 22 -31z
m1417 -259 c15 -15 15 -55 0 -99 -16 -49 -137 -229 -153 -229 -9 0 0 120 15
185 24 109 97 184 138 143z m-584 -79 c35 -50 -14 -136 -133 -234 l-24 -20 6
55 c17 160 101 270 151 199z m-1514 -324 c154 -254 313 -648 366 -905 36 -172
13 -326 -57 -385 -55 -46 -141 -28 -205 43 -50 56 -132 258 -150 372 -3 19 -7
37 -9 40 -2 3 -6 24 -9 46 -4 22 -9 51 -11 64 -3 14 -8 45 -10 70 -3 25 -7 59
-10 75 -18 116 -26 260 -25 450 0 148 2 200 9 265 3 22 53 -40 111 -135z"/>
</g>
</svg>
